<?xml version="1.0" encoding="utf-8"?>
<!-- Generator: Adobe Illustrator 16.0.0, SVG Export Plug-In . SVG Version: 6.00 Build 0)  -->
<!DOCTYPE svg PUBLIC "-//W3C//DTD SVG 1.1//EN" "http://www.w3.org/Graphics/SVG/1.1/DTD/svg11.dtd">
<svg version="1.1" id="Layer_1" xmlns="http://www.w3.org/2000/svg" xmlns:xlink="http://www.w3.org/1999/xlink" x="0px" y="0px"
	 width="486px" height="139px" viewBox="0 0 486 139" enable-background="new 0 0 486 139" xml:space="preserve">
<g>
	<polygon fill="#2F394A" points="416.57,69.5 347.14,69.5 277.71,0.07 185.14,0.07 185.14,23.21 162,0.07 0,0.07 0,69.5 0,138.93 
		486,138.93 	"/>
	<g>
		<g>
			<path fill="#F1EA29" d="M195.43,9.59h11.09v50.4h-11.09V9.59z"/>
			<path fill="#F1EA29" d="M229.7,19.81h-15.33V9.59h41.76v10.22h-15.33v40.18H229.7V19.81z"/>
		</g>
		<g>
			<path fill="#F1EA29" d="M10.29,9.77h20.59c3.03,0,5.73,0.42,8.1,1.26c2.38,0.84,4.39,2.03,6.05,3.56
				c1.66,1.54,2.93,3.37,3.82,5.51c0.89,2.14,1.33,4.5,1.33,7.09v0.14c0,2.93-0.53,5.5-1.58,7.7c-1.06,2.21-2.51,4.06-4.36,5.54
				c-1.85,1.49-4.01,2.6-6.48,3.35c-2.47,0.74-5.12,1.12-7.96,1.12h-8.42v15.12H10.29V9.77z M30.16,35.18c2.78,0,4.94-0.73,6.48-2.2
				c1.54-1.46,2.3-3.28,2.3-5.44v-0.14c0-2.49-0.8-4.39-2.41-5.69c-1.61-1.3-3.8-1.94-6.59-1.94h-8.57v15.41H30.16z"/>
			<path fill="#F1EA29" d="M71.72,9.41h10.22l21.6,50.76H91.95l-4.61-11.3H66.03l-4.61,11.3h-11.3L71.72,9.41z M83.38,39.07
				l-6.7-16.34l-6.7,16.34H83.38z"/>
			<path fill="#F1EA29" d="M118.77,40.29L99.4,9.77h12.96L124.38,30l12.24-20.23h12.6l-19.36,30.31v20.09h-11.09V40.29z"/>
		</g>
		<g>
			<path fill="#F1EA29" d="M10.29,79.01h38.38v10.01H21.38v10.87h24.05v10.01H21.38v19.51H10.29V79.01z"/>
			<path fill="#F1EA29" d="M80.42,130.28c-3.89,0-7.47-0.69-10.73-2.05c-3.27-1.37-6.08-3.21-8.46-5.54
				c-2.37-2.33-4.22-5.06-5.54-8.21s-1.98-6.52-1.98-10.12v-0.14c0-3.6,0.67-6.97,2.01-10.11c1.35-3.14,3.2-5.9,5.58-8.28
				c2.37-2.38,5.21-4.25,8.5-5.62s6.88-2.05,10.76-2.05c3.89,0,7.46,0.68,10.73,2.05c3.26,1.37,6.09,3.22,8.46,5.54
				s4.22,5.06,5.54,8.21c1.32,3.14,1.98,6.52,1.98,10.12v0.14c0,3.6-0.67,6.98-2.01,10.12c-1.35,3.15-3.21,5.91-5.59,8.28
				c-2.38,2.38-5.21,4.25-8.49,5.62C87.9,129.59,84.31,130.28,80.42,130.28z M80.56,120.06c2.21,0,4.25-0.41,6.12-1.23
				c1.87-0.81,3.46-1.94,4.79-3.38c1.32-1.44,2.35-3.11,3.1-5.01c0.74-1.89,1.12-3.92,1.12-6.08v-0.14c0-2.16-0.37-4.2-1.12-6.12
				c-0.75-1.92-1.8-3.6-3.17-5.04c-1.37-1.44-2.99-2.58-4.86-3.42c-1.87-0.84-3.91-1.26-6.12-1.26c-2.26,0-4.31,0.41-6.16,1.22
				c-1.85,0.82-3.44,1.94-4.75,3.38c-1.32,1.44-2.35,3.11-3.1,5c-0.74,1.89-1.11,3.92-1.11,6.08v0.14c0,2.16,0.37,4.2,1.11,6.12
				c0.74,1.92,1.8,3.6,3.17,5.04c1.37,1.44,2.98,2.58,4.83,3.42C76.25,119.64,78.31,120.06,80.56,120.06z"/>
			<path fill="#F1EA29" d="M117.06,79.01h23.04c6.38,0,11.28,1.71,14.69,5.11c2.88,2.88,4.32,6.72,4.32,11.52v0.15
				c0,4.08-0.99,7.4-2.99,9.97c-1.99,2.57-4.6,4.46-7.81,5.65l12.31,18h-12.96l-10.8-16.12h-0.14h-8.57v16.12h-11.09V79.01z
				 M139.38,103.49c2.74,0,4.84-0.65,6.3-1.94c1.46-1.3,2.19-3.02,2.19-5.18v-0.15c0-2.4-0.77-4.2-2.3-5.4
				c-1.54-1.2-3.67-1.8-6.41-1.8h-11.01v14.47H139.38z"/>
			<path fill="#F1EA29" d="M163.52,79.01h11.88l10.44,34.13l11.31-34.27h9.5l11.31,34.27l10.44-34.13h11.59l-17.21,50.76h-9.65
				L201.75,96.8l-11.37,32.98h-9.65L163.52,79.01z"/>
			<path fill="#F1EA29" d="M260.43,78.65h10.22l21.6,50.76h-11.59l-4.61-11.3h-21.31l-4.61,11.3h-11.31L260.43,78.65z M272.1,108.32
				l-6.7-16.34l-6.7,16.34H272.1z"/>
			<path fill="#F1EA29" d="M299.54,79.01h23.04c6.38,0,11.28,1.71,14.69,5.11c2.88,2.88,4.32,6.72,4.32,11.52v0.15
				c0,4.08-1,7.4-2.99,9.97c-2,2.57-4.6,4.46-7.82,5.65l12.31,18h-12.96l-10.8-16.12h-0.14h-8.57v16.12h-11.09V79.01z
				 M321.87,103.49c2.73,0,4.83-0.65,6.3-1.94c1.46-1.3,2.19-3.02,2.19-5.18v-0.15c0-2.4-0.77-4.2-2.3-5.4
				c-1.54-1.2-3.68-1.8-6.41-1.8h-11.02v14.47H321.87z"/>
			<path fill="#F1EA29" d="M351.86,79.01h19.66c3.94,0,7.55,0.64,10.84,1.91c3.29,1.27,6.12,3.04,8.49,5.29
				c2.38,2.26,4.21,4.91,5.51,7.96c1.3,3.05,1.94,6.35,1.94,9.9v0.14c0,3.55-0.65,6.87-1.94,9.94s-3.13,5.74-5.51,7.99
				c-2.38,2.26-5.21,4.03-8.49,5.33c-3.29,1.29-6.9,1.94-10.84,1.94h-19.66V79.01z M371.51,119.41c2.25,0,4.32-0.36,6.19-1.08
				c1.87-0.72,3.46-1.75,4.79-3.1c1.32-1.34,2.35-2.93,3.1-4.75c0.74-1.82,1.11-3.87,1.11-6.12v-0.14c0-2.21-0.37-4.25-1.11-6.12
				c-0.75-1.87-1.78-3.48-3.1-4.82c-1.32-1.34-2.91-2.39-4.79-3.13c-1.88-0.74-3.94-1.12-6.19-1.12h-8.57v30.38H371.51z"/>
		</g>
	</g>
</g>
</svg>
