<?xml version="1.0" encoding="utf-8"?>
<!-- Generator: Adobe Illustrator 15.1.0, SVG Export Plug-In . SVG Version: 6.00 Build 0)  -->
<!DOCTYPE svg PUBLIC "-//W3C//DTD SVG 1.1//EN" "http://www.w3.org/Graphics/SVG/1.1/DTD/svg11.dtd">
<svg version="1.1" id="Layer_1" xmlns="http://www.w3.org/2000/svg" xmlns:xlink="http://www.w3.org/1999/xlink" x="0px" y="0px"
	 width="534px" height="86px" viewBox="0 0 534 86" enable-background="new 0 0 534 86" xml:space="preserve">
<g>
	<g>
		<path fill="#E8583D" d="M3.232,59V3h56v56H48.033V36.6H14.433V59H3.232z M48.033,25.4V14.199H14.433V25.4H48.033z"/>
	</g>
	<g>
		<path fill="#E8583D" d="M62.145,59V3h11.2v44.801h44.799V59H62.145z"/>
	</g>
	<g>
		<path fill="#E8583D" d="M121.056,59V3h56v56h-11.2V36.6h-33.6V59H121.056z M165.855,25.4V14.199h-33.6V25.4H165.855z"/>
	</g>
	<g>
		<g>
			<path fill="#E8583D" d="M179.967,59V3h56v33.6h-22.399l14.874,14.787L220.916,59l-22.399-22.4h-7.351V59H179.967z M224.768,25.4
				V14.199h-33.602V25.4H224.768z"/>
		</g>
		<g>
			<path fill="#E8583D" d="M238.878,59V3h56.001v56h-11.201V14.199h-11.199V59h-11.2V14.199h-11.2V59H238.878z"/>
		</g>
		<g>
			<path fill="#383C40" d="M298.035,59V47.801l38.762-33.602h-38.762V3h55.999v11.199l-38.062,33.602h38.062V59H298.035z"/>
		</g>
	</g>
	<g>
		<path fill="#383C40" d="M356.945,59V3h56v56H356.945z M401.746,47.801V14.199h-33.601v33.602H401.746z"/>
	</g>
	<g>
		<path fill="#383C40" d="M415.856,59V3h56v56h-11.2V14.199h-33.6V59H415.856z"/>
	</g>
	<g>
		<path fill="#383C40" d="M474.769,59V3h55.999v11.199h-44.8V25.4h22.4V36.6h-22.4v11.201h44.8V59H474.769z"/>
	</g>
</g>
<g>
	<path fill="#999999" d="M302.552,69.607c0.658,0,1.211,0.111,1.658,0.331c0.447,0.222,0.812,0.512,1.086,0.871
		c0.274,0.357,0.472,0.768,0.59,1.228c0.121,0.46,0.181,0.929,0.181,1.407c0,0.657-0.1,1.23-0.295,1.721
		c-0.198,0.49-0.474,0.89-0.826,1.201c-0.353,0.311-0.78,0.544-1.282,0.699c-0.501,0.155-1.058,0.234-1.666,0.234h-1.381v5.108
		h-2.581V69.607H302.552z M301.763,75.398c0.514,0,0.93-0.154,1.247-0.466c0.314-0.312,0.476-0.796,0.476-1.452
		c0-0.646-0.139-1.135-0.414-1.471c-0.274-0.334-0.734-0.502-1.38-0.502h-1.075v3.891H301.763z"/>
	<path fill="#999999" d="M307.205,73.328c0.089-0.818,0.286-1.52,0.593-2.106c0.303-0.587,0.742-1.043,1.315-1.371
		c0.574-0.33,1.345-0.494,2.313-0.494c0.967,0,1.739,0.164,2.312,0.494c0.572,0.328,1.014,0.784,1.318,1.371
		c0.304,0.587,0.501,1.288,0.591,2.106s0.135,1.712,0.135,2.68c0,0.98-0.045,1.877-0.135,2.688c-0.09,0.812-0.287,1.515-0.591,2.099
		c-0.305,0.586-0.746,1.034-1.318,1.345c-0.573,0.31-1.346,0.466-2.312,0.466c-0.969,0-1.739-0.156-2.313-0.466
		c-0.573-0.311-1.013-0.759-1.315-1.345c-0.307-0.584-0.504-1.286-0.593-2.099c-0.09-0.812-0.135-1.708-0.135-2.688
		C307.07,75.04,307.115,74.146,307.205,73.328z M309.715,78.204c0.04,0.603,0.126,1.094,0.251,1.47
		c0.124,0.377,0.305,0.652,0.537,0.824c0.232,0.175,0.54,0.261,0.924,0.261c0.381,0,0.689-0.086,0.923-0.261
		c0.233-0.172,0.412-0.447,0.538-0.824c0.126-0.376,0.208-0.867,0.252-1.47c0.041-0.604,0.062-1.336,0.062-2.196
		c0-0.859-0.021-1.59-0.062-2.187c-0.044-0.599-0.126-1.089-0.252-1.47c-0.126-0.384-0.305-0.661-0.538-0.835
		s-0.542-0.259-0.923-0.259c-0.384,0-0.691,0.085-0.924,0.259s-0.413,0.451-0.537,0.835c-0.125,0.381-0.211,0.871-0.251,1.47
		c-0.041,0.597-0.063,1.327-0.063,2.187C309.651,76.868,309.674,77.601,309.715,78.204z"/>
	<path fill="#999999" d="M319.026,69.607l1.418,9.467h0.036l1.506-9.467h2.473l1.506,9.467h0.038l1.415-9.467h2.474l-2.332,12.801
		h-2.886l-1.433-9.287h-0.036l-1.435,9.287h-2.887l-2.33-12.801H319.026z"/>
	<path fill="#999999" d="M338.085,71.724h-4.572v3.011h4.304v2.116h-4.304v3.441h4.752v2.116h-7.333V69.607h7.153V71.724z"/>
	<path fill="#999999" d="M344.323,69.607c1.076,0,1.912,0.272,2.511,0.814c0.598,0.545,0.895,1.373,0.895,2.484
		c0,0.86-0.172,1.563-0.519,2.107c-0.346,0.543-0.885,0.894-1.613,1.048v0.036c0.645,0.096,1.116,0.304,1.416,0.627
		c0.299,0.323,0.483,0.843,0.557,1.561c0.022,0.239,0.041,0.499,0.053,0.778c0.012,0.282,0.024,0.597,0.036,0.942
		c0.023,0.681,0.06,1.201,0.107,1.56c0.07,0.358,0.227,0.604,0.467,0.735v0.107h-2.797c-0.132-0.18-0.215-0.385-0.251-0.619
		c-0.036-0.231-0.061-0.475-0.071-0.725l-0.072-2.456c-0.024-0.504-0.15-0.897-0.377-1.185c-0.227-0.286-0.609-0.43-1.146-0.43
		h-1.381v5.414h-2.581V69.607H344.323z M343.212,75.201c0.621,0,1.1-0.146,1.433-0.439c0.336-0.292,0.504-0.786,0.504-1.479
		c0-1.184-0.599-1.775-1.794-1.775h-1.218v3.693H343.212z"/>
	<path fill="#999999" d="M356.676,71.724h-4.571v3.011h4.302v2.116h-4.302v3.441h4.751v2.116h-7.332V69.607h7.152V71.724z"/>
	<path fill="#999999" d="M362.502,69.607c0.897,0,1.619,0.146,2.17,0.439c0.55,0.294,0.977,0.711,1.279,1.255
		c0.307,0.545,0.513,1.198,0.619,1.964c0.108,0.764,0.162,1.62,0.162,2.563c0,1.123-0.068,2.1-0.204,2.932
		c-0.139,0.83-0.376,1.514-0.71,2.052c-0.334,0.537-0.782,0.938-1.345,1.201c-0.562,0.264-1.272,0.395-2.134,0.395h-4.068V69.607
		H362.502z M362,80.507c0.452,0,0.818-0.078,1.093-0.232c0.275-0.154,0.493-0.412,0.656-0.77c0.159-0.359,0.267-0.832,0.321-1.418
		c0.054-0.584,0.081-1.314,0.081-2.187c0-0.729-0.024-1.369-0.072-1.918c-0.048-0.55-0.146-1.007-0.295-1.373
		c-0.149-0.363-0.37-0.639-0.663-0.823c-0.294-0.186-0.687-0.278-1.176-0.278h-1.093v8.999H362z"/>
	<path fill="#999999" d="M377.06,69.607c0.524,0,1.013,0.054,1.46,0.162c0.447,0.106,0.834,0.285,1.157,0.537
		c0.321,0.251,0.574,0.586,0.753,1.005c0.179,0.418,0.269,0.931,0.269,1.541c0,0.693-0.161,1.288-0.484,1.783
		c-0.321,0.496-0.806,0.834-1.451,1.014v0.036c0.716,0.096,1.284,0.4,1.704,0.914c0.416,0.514,0.627,1.202,0.627,2.062
		c0,0.502-0.067,0.981-0.198,1.434c-0.132,0.455-0.355,0.854-0.672,1.192c-0.318,0.34-0.729,0.613-1.237,0.815
		c-0.509,0.204-1.139,0.306-1.892,0.306h-4.355V69.607H377.06z M376.055,74.86c0.717,0,1.24-0.128,1.57-0.386
		c0.327-0.257,0.492-0.69,0.492-1.299c0-0.609-0.15-1.041-0.448-1.29c-0.299-0.253-0.771-0.378-1.418-0.378h-0.931v3.353H376.055z
		 M376.323,80.507c0.623,0,1.124-0.137,1.506-0.412c0.384-0.274,0.574-0.781,0.574-1.523c0-0.371-0.051-0.678-0.151-0.922
		c-0.103-0.246-0.239-0.444-0.412-0.593c-0.175-0.149-0.381-0.253-0.618-0.313c-0.239-0.061-0.502-0.089-0.79-0.089h-1.111v3.853
		H376.323z"/>
	<path fill="#999999" d="M386.453,74.557h0.035l1.794-4.949h2.797l-3.317,7.764v5.037h-2.581v-5.037l-3.316-7.764h2.902
		L386.453,74.557z"/>
	<path fill="#999999" d="M400.849,69.607c0.655,0,1.209,0.111,1.658,0.331c0.448,0.222,0.81,0.512,1.084,0.871
		c0.275,0.357,0.473,0.768,0.593,1.228c0.118,0.46,0.18,0.929,0.18,1.407c0,0.657-0.1,1.23-0.298,1.721
		c-0.197,0.49-0.472,0.89-0.823,1.201c-0.353,0.311-0.781,0.544-1.282,0.699c-0.502,0.155-1.058,0.234-1.668,0.234h-1.38v5.108
		h-2.581V69.607H400.849z M400.06,75.398c0.514,0,0.929-0.154,1.245-0.466c0.317-0.312,0.475-0.796,0.475-1.452
		c0-0.646-0.137-1.135-0.412-1.471c-0.275-0.334-0.733-0.502-1.379-0.502h-1.076v3.891H400.06z"/>
	<path fill="#999999" d="M410.403,69.607c1.076,0,1.912,0.272,2.511,0.814c0.598,0.545,0.896,1.373,0.896,2.484
		c0,0.86-0.173,1.563-0.521,2.107c-0.347,0.543-0.885,0.894-1.613,1.048v0.036c0.646,0.096,1.118,0.304,1.415,0.627
		c0.301,0.323,0.486,0.843,0.557,1.561c0.025,0.239,0.042,0.499,0.054,0.778c0.013,0.282,0.025,0.597,0.035,0.942
		c0.025,0.681,0.06,1.201,0.108,1.56c0.072,0.358,0.227,0.604,0.467,0.735v0.107h-2.797c-0.131-0.18-0.215-0.385-0.251-0.619
		c-0.035-0.231-0.061-0.475-0.072-0.725l-0.071-2.456c-0.024-0.504-0.149-0.897-0.377-1.185c-0.227-0.286-0.608-0.43-1.146-0.43
		h-1.381v5.414h-2.581V69.607H410.403z M409.294,75.201c0.62,0,1.098-0.146,1.433-0.439c0.335-0.292,0.503-0.786,0.503-1.479
		c0-1.184-0.598-1.775-1.794-1.775h-1.219v3.693H409.294z"/>
	<path fill="#999999" d="M415.469,73.328c0.09-0.818,0.288-1.52,0.592-2.106c0.305-0.587,0.743-1.043,1.317-1.371
		c0.574-0.33,1.345-0.494,2.312-0.494s1.74,0.164,2.313,0.494c0.573,0.328,1.013,0.784,1.317,1.371s0.501,1.288,0.591,2.106
		s0.136,1.712,0.136,2.68c0,0.98-0.046,1.877-0.136,2.688c-0.09,0.812-0.286,1.515-0.591,2.099
		c-0.305,0.586-0.744,1.034-1.317,1.345c-0.573,0.31-1.346,0.466-2.313,0.466s-1.738-0.156-2.312-0.466
		c-0.574-0.311-1.013-0.759-1.317-1.345c-0.304-0.584-0.502-1.286-0.592-2.099c-0.091-0.812-0.134-1.708-0.134-2.688
		C415.335,75.04,415.378,74.146,415.469,73.328z M417.979,78.204c0.041,0.603,0.126,1.094,0.251,1.47
		c0.125,0.377,0.306,0.652,0.538,0.824c0.232,0.175,0.539,0.261,0.923,0.261c0.383,0,0.69-0.086,0.923-0.261
		c0.233-0.172,0.412-0.447,0.539-0.824c0.125-0.376,0.209-0.867,0.251-1.47c0.041-0.604,0.063-1.336,0.063-2.196
		c0-0.859-0.022-1.59-0.063-2.187c-0.042-0.599-0.126-1.089-0.251-1.47c-0.127-0.384-0.306-0.661-0.539-0.835
		c-0.232-0.174-0.54-0.259-0.923-0.259c-0.384,0-0.69,0.085-0.923,0.259s-0.413,0.451-0.538,0.835
		c-0.125,0.381-0.21,0.871-0.251,1.47c-0.042,0.597-0.062,1.327-0.062,2.187C417.916,76.868,417.937,77.601,417.979,78.204z"/>
	<path fill="#999999" d="M433.063,71.724h-2.796v10.685h-2.581V71.724h-2.797v-2.116h8.174V71.724z"/>
	<path fill="#999999" d="M441.33,71.724h-4.573v3.011h4.304v2.116h-4.304v3.441h4.751v2.116h-7.332V69.607h7.154V71.724z"/>
	<path fill="#999999" d="M447.936,71.894c-0.221-0.424-0.624-0.636-1.21-0.636c-0.322,0-0.589,0.085-0.798,0.259
		c-0.208,0.174-0.374,0.454-0.493,0.844c-0.119,0.388-0.203,0.895-0.251,1.522c-0.047,0.628-0.072,1.396-0.072,2.304
		c0,0.97,0.033,1.752,0.1,2.349c0.066,0.598,0.166,1.062,0.305,1.389c0.137,0.329,0.311,0.551,0.521,0.664
		c0.208,0.114,0.451,0.171,0.727,0.171c0.226,0,0.438-0.039,0.635-0.117c0.197-0.077,0.367-0.232,0.511-0.466
		c0.145-0.232,0.257-0.562,0.342-0.985c0.082-0.424,0.125-0.982,0.125-1.677h2.582c0,0.694-0.054,1.35-0.162,1.972
		c-0.107,0.622-0.308,1.165-0.601,1.632c-0.294,0.467-0.705,0.831-1.237,1.093c-0.532,0.263-1.222,0.396-2.07,0.396
		c-0.968,0-1.737-0.156-2.313-0.466c-0.572-0.311-1.014-0.759-1.316-1.345c-0.306-0.584-0.501-1.286-0.592-2.099
		c-0.09-0.812-0.136-1.708-0.136-2.688c0-0.968,0.046-1.861,0.136-2.68c0.091-0.818,0.286-1.52,0.592-2.106
		c0.303-0.587,0.744-1.043,1.316-1.371c0.576-0.33,1.346-0.494,2.313-0.494c0.921,0,1.646,0.149,2.179,0.449
		c0.532,0.299,0.927,0.678,1.192,1.138c0.262,0.46,0.426,0.957,0.494,1.488c0.063,0.53,0.097,1.03,0.097,1.497h-2.58
		C448.269,72.997,448.157,72.316,447.936,71.894z"/>
	<path fill="#999999" d="M459.92,71.724h-2.797v10.685h-2.581V71.724h-2.798v-2.116h8.176V71.724z"/>
	<path fill="#999999" d="M470.354,69.607l3.388,12.801h-2.689l-0.591-2.707h-3.406l-0.593,2.707h-2.689l3.39-12.801H470.354z
		 M470.014,77.586l-1.237-5.755h-0.036l-1.237,5.755H470.014z"/>
	<path fill="#999999" d="M478.528,69.607l1.83,9.035h0.036l1.845-9.035h3.819v12.801h-2.366v-10.22h-0.036l-2.276,10.22h-2.009
		l-2.275-10.22h-0.036v10.22h-2.366V69.607H478.528z"/>
	<path fill="#999999" d="M495.059,71.724h-4.572v3.011h4.304v2.116h-4.304v3.441h4.752v2.116h-7.333V69.607h7.153V71.724z"/>
	<path fill="#999999" d="M501.296,69.607c1.077,0,1.913,0.272,2.51,0.814c0.599,0.545,0.897,1.373,0.897,2.484
		c0,0.86-0.174,1.563-0.519,2.107c-0.349,0.543-0.886,0.894-1.615,1.048v0.036c0.646,0.096,1.117,0.304,1.417,0.627
		c0.298,0.323,0.482,0.843,0.555,1.561c0.025,0.239,0.044,0.499,0.055,0.778c0.012,0.282,0.023,0.597,0.036,0.942
		c0.022,0.681,0.06,1.201,0.107,1.56c0.072,0.358,0.227,0.604,0.465,0.735v0.107h-2.795c-0.134-0.18-0.215-0.385-0.251-0.619
		c-0.037-0.231-0.06-0.475-0.072-0.725l-0.072-2.456c-0.022-0.504-0.149-0.897-0.375-1.185c-0.229-0.286-0.61-0.43-1.147-0.43
		h-1.382v5.414h-2.582V69.607H501.296z M500.185,75.201c0.622,0,1.102-0.146,1.436-0.439c0.333-0.292,0.501-0.786,0.501-1.479
		c0-1.184-0.598-1.775-1.792-1.775h-1.22v3.693H500.185z"/>
	<path fill="#999999" d="M506.62,69.607h2.582v12.801h-2.582V69.607z"/>
	<path fill="#999999" d="M516.257,71.894c-0.221-0.424-0.624-0.636-1.209-0.636c-0.323,0-0.59,0.085-0.798,0.259
		c-0.209,0.174-0.374,0.454-0.494,0.844c-0.119,0.388-0.203,0.895-0.25,1.522c-0.048,0.628-0.073,1.396-0.073,2.304
		c0,0.97,0.035,1.752,0.101,2.349c0.065,0.598,0.166,1.062,0.305,1.389c0.137,0.329,0.312,0.551,0.52,0.664
		c0.209,0.114,0.451,0.171,0.727,0.171c0.227,0,0.439-0.039,0.636-0.117c0.197-0.077,0.368-0.232,0.511-0.466
		c0.144-0.232,0.256-0.562,0.342-0.985c0.083-0.424,0.125-0.982,0.125-1.677h2.581c0,0.694-0.054,1.35-0.161,1.972
		c-0.108,0.622-0.308,1.165-0.601,1.632c-0.294,0.467-0.706,0.831-1.235,1.093c-0.533,0.263-1.225,0.396-2.072,0.396
		c-0.968,0-1.737-0.156-2.313-0.466c-0.572-0.311-1.013-0.759-1.317-1.345c-0.304-0.584-0.501-1.286-0.591-2.099
		c-0.091-0.812-0.135-1.708-0.135-2.688c0-0.968,0.044-1.861,0.135-2.68c0.09-0.818,0.287-1.52,0.591-2.106
		c0.305-0.587,0.745-1.043,1.317-1.371c0.576-0.33,1.346-0.494,2.313-0.494c0.921,0,1.645,0.149,2.178,0.449
		c0.532,0.299,0.93,0.678,1.192,1.138s0.426,0.957,0.494,1.488c0.065,0.53,0.098,1.03,0.098,1.497h-2.581
		C516.59,72.997,516.479,72.316,516.257,71.894z"/>
	<path fill="#999999" d="M526.431,69.607l3.39,12.801h-2.689l-0.592-2.707h-3.407l-0.592,2.707h-2.689l3.39-12.801H526.431z
		 M526.092,77.586l-1.238-5.755h-0.035l-1.239,5.755H526.092z"/>
</g>
</svg>
